<svg viewBox="4.699 7.666 104.6 32.889" xmlns="http://www.w3.org/2000/svg">
  <path d="M 95.403 14.909 L 91.069 29.108 L 90.151 29.108 C 91.5 25.436 91.471 22.395 90.754 20.474 L 88.659 14.909 L 82.115 14.909 L 88.945 32.292 C 88.543 32.894 88.142 33.009 87.482 33.009 C 86.793 33.009 85.76 32.693 84.727 32.091 L 82.775 36.48 C 84.497 37.369 86.334 38.029 88.543 38.029 C 92.103 38.029 93.767 36.365 95.317 32.206 L 101.803 14.909 L 95.403 14.909 Z M 75.773 18.494 L 74.969 18.494 L 75.428 14.909 L 69.229 14.909 L 69.229 32.665 L 75.428 32.665 L 75.428 27.071 C 75.428 22.998 77.294 21.133 80.565 21.133 L 81.082 21.133 L 81.082 14.536 C 78.098 14.421 76.49 15.999 75.773 18.494 Z M 40.759 14.45 C 37.889 14.45 36.196 15.712 34.819 18.867 L 33.872 18.867 C 34.991 16.802 35.134 15.023 35.134 12.929 L 35.134 9.229 L 28.936 9.229 C 28.936 11.753 26.323 12.442 24.602 11.524 C 21.961 10.118 19.35 9.229 16.25 9.229 C 10.884 9.229 7.325 12.155 7.325 16.573 C 7.325 21.392 11.113 22.854 16.02 23.887 C 19.551 24.633 20.326 25.149 20.326 26.211 C 20.326 27.186 19.407 27.76 17.341 27.76 C 14.672 27.76 12.06 26.784 9.793 24.977 L 6.234 29.223 C 9.076 31.776 12.95 33.038 17.025 33.038 C 23.109 33.038 26.783 30.227 26.783 25.522 C 26.783 21.162 23.482 19.47 17.743 18.322 C 14.529 17.691 13.783 17.146 13.783 16.085 C 13.783 15.196 14.615 14.536 16.164 14.536 C 17.943 14.536 19.665 15.052 21.904 16.486 C 24.258 17.978 27.385 18.035 28.936 16.371 L 28.936 32.665 L 35.134 32.665 L 35.134 23.055 C 35.134 21.076 36.254 20.015 37.746 20.015 C 39.296 20.015 40.3 21.076 40.3 23.055 L 40.3 32.665 L 46.499 32.665 L 46.499 21.047 C 46.499 16.974 44.232 14.45 40.759 14.45 Z M 57.836 14.536 C 52.182 14.536 48.135 18.638 48.135 23.801 C 48.135 28.964 52.182 33.038 57.836 33.038 C 63.489 33.038 67.651 28.964 67.651 23.801 C 67.651 18.638 63.489 14.536 57.836 14.536 Z M 57.864 27.731 C 55.683 27.731 54.162 26.039 54.162 23.801 C 54.162 21.592 55.683 19.842 57.864 19.842 C 60.045 19.842 61.624 21.592 61.624 23.801 C 61.624 26.039 60.045 27.731 57.864 27.731 Z" fill="#111827"/>
  <path d="M 99.507 29.309 C 99.507 26.985 101.429 25.494 103.582 25.494 C 105.735 25.494 107.514 26.985 107.514 29.309 C 107.514 31.632 105.735 33.124 103.582 33.124 C 101.429 33.124 99.507 31.632 99.507 29.309 Z" fill="#111827"/>
</svg>
